<svg width="1309" height="475" viewBox="0 0 1309 475" fill="none" xmlns="http://www.w3.org/2000/svg">
<g clip-path="url(#clip0_1_3987)">
<rect x="0.478516" y="0.543945" width="1308" height="474" rx="19" fill="#0E0E0E"/>
<g filter="url(#filter0_f_1_3987)">
<circle cx="1238.48" cy="70.5439" r="70" fill="#D9D9D9"/>
</g>
<path d="M-50.752 82.539L29.4189 53.3563L58.5824 -26.7954C59.251 -28.6316 60.4683 -30.2176 62.0691 -31.3383C63.6699 -32.4589 65.5767 -33.0601 67.5307 -33.0601C69.4848 -33.0601 71.3916 -32.4589 72.9924 -31.3383C74.5932 -30.2176 75.8104 -28.6316 76.4791 -26.7954L105.662 53.3755L185.833 82.539C187.669 83.2076 189.255 84.4249 190.375 86.0256C191.496 87.6264 192.097 89.5332 192.097 91.4873C192.097 93.4414 191.496 95.3481 190.375 96.9489C189.255 98.5497 187.669 99.767 185.833 100.436L105.643 129.618L76.4791 209.789C75.8104 211.625 74.5932 213.211 72.9924 214.332C71.3916 215.453 69.4848 216.054 67.5307 216.054C65.5767 216.054 63.6699 215.453 62.0691 214.332C60.4683 213.211 59.251 211.625 58.5824 209.789L29.3998 129.599L-50.752 100.436C-52.5881 99.767 -54.1741 98.5497 -55.2948 96.9489C-56.4155 95.3481 -57.0166 93.4414 -57.0166 91.4873C-57.0166 89.5332 -56.4155 87.6264 -55.2948 86.0256C-54.1741 84.4249 -52.5881 83.2076 -50.752 82.539Z" stroke="white" stroke-opacity="0.2" stroke-width="2.47243" stroke-linecap="round" stroke-linejoin="round"/>
<path d="M1038.77 389.204L1054.49 383.484L1060.2 367.772C1060.33 367.412 1060.57 367.101 1060.89 366.881C1061.2 366.662 1061.57 366.544 1061.96 366.544C1062.34 366.544 1062.71 366.662 1063.03 366.881C1063.34 367.101 1063.58 367.412 1063.71 367.772L1069.43 383.488L1085.15 389.204C1085.51 389.336 1085.82 389.574 1086.04 389.888C1086.26 390.202 1086.37 390.576 1086.37 390.959C1086.37 391.342 1086.26 391.715 1086.04 392.029C1085.82 392.343 1085.51 392.582 1085.15 392.713L1069.43 398.433L1063.71 414.149C1063.58 414.509 1063.34 414.82 1063.03 415.039C1062.71 415.259 1062.34 415.377 1061.96 415.377C1061.57 415.377 1061.2 415.259 1060.89 415.039C1060.57 414.82 1060.33 414.509 1060.2 414.149L1054.48 398.43L1038.77 392.713C1038.41 392.582 1038.1 392.343 1037.88 392.029C1037.66 391.715 1037.54 391.342 1037.54 390.959C1037.54 390.576 1037.66 390.202 1037.88 389.888C1038.1 389.574 1038.41 389.336 1038.77 389.204Z" stroke="white" stroke-opacity="0.21" stroke-width="1.59174" stroke-linecap="round" stroke-linejoin="round"/>
<path d="M1201.68 58.6115L1221.42 51.4237L1228.61 31.6819C1228.77 31.2297 1229.07 30.839 1229.47 30.563C1229.86 30.287 1230.33 30.1389 1230.81 30.1389C1231.29 30.1389 1231.76 30.287 1232.16 30.563C1232.55 30.839 1232.85 31.2297 1233.01 31.6819L1240.2 51.4284L1259.95 58.6115C1260.4 58.7762 1260.79 59.0761 1261.07 59.4703C1261.34 59.8646 1261.49 60.3343 1261.49 60.8156C1261.49 61.2969 1261.34 61.7665 1261.07 62.1608C1260.79 62.5551 1260.4 62.8549 1259.95 63.0196L1240.2 70.2074L1233.01 89.9539C1232.85 90.4062 1232.55 90.7968 1232.16 91.0728C1231.76 91.3489 1231.29 91.4969 1230.81 91.4969C1230.33 91.4969 1229.86 91.3489 1229.47 91.0728C1229.07 90.7968 1228.77 90.4062 1228.61 89.9539L1221.42 70.2027L1201.68 63.0196C1201.22 62.8549 1200.83 62.5551 1200.56 62.1608C1200.28 61.7665 1200.13 61.2969 1200.13 60.8156C1200.13 60.3343 1200.28 59.8646 1200.56 59.4703C1200.83 59.0761 1201.22 58.7762 1201.68 58.6115Z" stroke="white" stroke-opacity="0.21" stroke-width="2" stroke-linecap="round" stroke-linejoin="round"/>
<path d="M210.402 59.2376L224.543 54.0901L229.687 39.9522C229.805 39.6283 230.02 39.3486 230.302 39.1509C230.585 38.9532 230.921 38.8472 231.266 38.8472C231.61 38.8472 231.947 38.9532 232.229 39.1509C232.511 39.3486 232.726 39.6283 232.844 39.9522L237.992 54.0934L252.133 59.2376C252.457 59.3555 252.736 59.5702 252.934 59.8526C253.132 60.1349 253.238 60.4713 253.238 60.816C253.238 61.1606 253.132 61.497 252.934 61.7793C252.736 62.0617 252.457 62.2764 252.133 62.3943L237.988 67.5418L232.844 81.6831C232.726 82.007 232.511 82.2867 232.229 82.4844C231.947 82.6821 231.61 82.7881 231.266 82.7881C230.921 82.7881 230.585 82.6821 230.302 82.4844C230.02 82.2867 229.805 82.007 229.687 81.6831L224.54 67.5385L210.402 62.3943C210.078 62.2764 209.798 62.0617 209.601 61.7793C209.403 61.497 209.297 61.1606 209.297 60.816C209.297 60.4713 209.403 60.1349 209.601 59.8526C209.798 59.5702 210.078 59.3555 210.402 59.2376Z" stroke="white" stroke-opacity="0.21" stroke-width="2" stroke-linecap="round" stroke-linejoin="round"/>
</g>
<defs>
<filter id="filter0_f_1_3987" x="764.479" y="-403.456" width="948" height="948" filterUnits="userSpaceOnUse" color-interpolation-filters="sRGB">
<feFlood flood-opacity="0" result="BackgroundImageFix"/>
<feBlend mode="normal" in="SourceGraphic" in2="BackgroundImageFix" result="shape"/>
<feGaussianBlur stdDeviation="202" result="effect1_foregroundBlur_1_3987"/>
</filter>
<clipPath id="clip0_1_3987">
<rect x="0.478516" y="0.543945" width="1308" height="474" rx="19" fill="white"/>
</clipPath>
</defs>
</svg>
