<svg width="1920" height="1099" viewBox="0 0 1920 1099" fill="none" xmlns="http://www.w3.org/2000/svg">
<g clip-path="url(#clip0_1_1606)">
<g filter="url(#filter0_f_1_1606)">
<path d="M949.5 798.938C861.829 798.938 777.749 833.765 715.757 895.757C653.765 957.749 618.938 1041.83 618.938 1129.5C618.938 1217.17 653.765 1301.25 715.757 1363.24C777.749 1425.24 861.829 1460.06 949.5 1460.06C1037.17 1460.06 1121.25 1425.24 1183.24 1363.24C1245.24 1301.25 1280.06 1217.17 1280.06 1129.5C1280.06 1041.83 1245.24 957.749 1183.24 895.757C1121.25 833.765 1037.17 798.938 949.5 798.938ZM1133 1148.53C1128.94 1153.88 1123.3 1157.82 1116.88 1159.81L1064.95 1177.23C1049.09 1182.65 1034.65 1191.58 1022.71 1203.35C1010.85 1215.22 1001.9 1229.68 996.585 1245.6L978.848 1297.52C976.461 1303.38 972.567 1308.5 967.56 1312.36C962.205 1316.24 955.788 1318.38 949.177 1318.49C942.533 1318.58 936.052 1316.42 930.795 1312.36C925.432 1308.51 921.379 1303.1 919.185 1296.88L902.092 1244.95C896.78 1228.98 887.799 1214.48 875.87 1202.61C863.941 1190.73 849.395 1181.82 833.4 1176.58L781.8 1159.49C775.573 1157.3 770.17 1153.25 766.32 1147.88C762.3 1142.6 760.145 1136.14 760.193 1129.5C760.236 1122.78 762.378 1116.24 766.32 1110.8C770.024 1105.57 775.353 1101.71 781.477 1099.83L833.4 1082.42C849.45 1076.98 864.098 1068.06 876.292 1056.29C888.225 1044.23 897.158 1029.52 902.415 1013.4L919.83 962.445C921.763 956.343 925.467 950.955 930.473 946.965C935.616 942.622 942.123 940.224 948.855 940.193C955.254 940.083 961.54 941.879 966.915 945.352C972.59 948.881 976.909 954.222 979.17 960.51L996.585 1013.08C1002 1029.3 1011.03 1044.07 1023.03 1056.29C1035.15 1067.99 1049.68 1076.91 1065.6 1082.42L1117.52 1100.48C1123.69 1102.44 1129.03 1106.41 1132.68 1111.76C1136.44 1117.15 1138.47 1123.57 1138.49 1130.15C1138.45 1136.66 1136.55 1143.05 1133 1148.53Z" fill="white"/>
</g>
<g clip-path="url(#clip1_1_1606)">
<path fill-rule="evenodd" clip-rule="evenodd" d="M340.935 464.155C340.617 463.282 339.383 463.282 339.065 464.155L337.622 468.122L333.655 469.565C332.782 469.883 332.782 471.117 333.655 471.435L337.622 472.878L339.065 476.845C339.383 477.718 340.617 477.718 340.935 476.845L342.378 472.878L346.345 471.435C347.218 471.117 347.218 469.883 346.345 469.565L342.378 468.122L340.935 464.155Z" fill="#CCCCCC"/>
</g>
<g clip-path="url(#clip2_1_1606)">
<path fill-rule="evenodd" clip-rule="evenodd" d="M124.402 770.483C123.925 769.173 122.074 769.173 121.597 770.483L119.433 776.433L113.482 778.598C112.173 779.075 112.173 780.926 113.482 781.403L119.433 783.567L121.597 789.518C122.074 790.827 123.925 790.827 124.402 789.518L126.567 783.567L132.517 781.403C133.827 780.926 133.827 779.075 132.517 778.598L126.567 776.433L124.402 770.483Z" fill="#CCCCCC"/>
</g>
<g clip-path="url(#clip3_1_1606)">
<path fill-rule="evenodd" clip-rule="evenodd" d="M676.739 1077.62C675.467 1074.13 670.531 1074.13 669.259 1077.62L663.487 1093.49L647.619 1099.26C644.127 1100.53 644.127 1105.47 647.619 1106.74L663.487 1112.51L669.259 1128.38C670.531 1131.87 675.467 1131.87 676.739 1128.38L682.511 1112.51L698.379 1106.74C701.871 1105.47 701.871 1100.53 698.379 1099.26L682.511 1093.49L676.739 1077.62Z" fill="#CCCCCC"/>
</g>
<g clip-path="url(#clip4_1_1606)">
<path fill-rule="evenodd" clip-rule="evenodd" d="M606.807 222.31C606.171 220.564 603.703 220.564 603.067 222.31L600.181 230.244L592.247 233.13C590.501 233.766 590.501 236.234 592.247 236.87L600.181 239.756L603.067 247.69C603.703 249.436 606.171 249.436 606.807 247.69L609.693 239.756L617.627 236.87C619.373 236.234 619.373 233.766 617.627 233.13L609.693 230.244L606.807 222.31Z" fill="#CCCCCC"/>
</g>
<g clip-path="url(#clip5_1_1606)">
<path fill-rule="evenodd" clip-rule="evenodd" d="M110.056 130.83C109.696 129.843 108.302 129.843 107.942 130.83L106.312 135.312L101.829 136.943C100.843 137.302 100.843 138.697 101.829 139.056L106.312 140.687L107.942 145.169C108.302 146.156 109.696 146.156 110.056 145.169L111.686 140.687L116.169 139.056C117.155 138.697 117.155 137.302 116.169 136.943L111.686 135.312L110.056 130.83Z" fill="#CCCCCC"/>
</g>
<g clip-path="url(#clip6_1_1606)">
<path fill-rule="evenodd" clip-rule="evenodd" d="M1809.87 397.31C1809.23 395.564 1806.77 395.564 1806.13 397.31L1803.24 405.244L1795.31 408.13C1793.56 408.766 1793.56 411.234 1795.31 411.87L1803.24 414.756L1806.13 422.69C1806.77 424.436 1809.23 424.436 1809.87 422.69L1812.76 414.756L1820.69 411.87C1822.44 411.234 1822.44 408.766 1820.69 408.13L1812.76 405.244L1809.87 397.31Z" fill="#CCCCCC"/>
</g>
<g clip-path="url(#clip7_1_1606)">
<path fill-rule="evenodd" clip-rule="evenodd" d="M1287.78 205.655C1287.46 204.782 1286.22 204.782 1285.91 205.655L1284.46 209.622L1280.5 211.065C1279.62 211.383 1279.62 212.617 1280.5 212.935L1284.46 214.378L1285.91 218.345C1286.22 219.218 1287.46 219.218 1287.78 218.345L1289.22 214.378L1293.19 212.935C1294.06 212.617 1294.06 211.383 1293.19 211.065L1289.22 209.622L1287.78 205.655Z" fill="#CCCCCC"/>
</g>
<g clip-path="url(#clip8_1_1606)">
<path fill-rule="evenodd" clip-rule="evenodd" d="M1639.93 898.655C1639.62 897.782 1638.38 897.782 1638.06 898.655L1636.62 902.622L1632.65 904.065C1631.78 904.383 1631.78 905.617 1632.65 905.935L1636.62 907.378L1638.06 911.345C1638.38 912.218 1639.62 912.218 1639.93 911.345L1641.38 907.378L1645.34 905.935C1646.22 905.617 1646.22 904.383 1645.34 904.065L1641.38 902.622L1639.93 898.655Z" fill="#CCCCCC"/>
</g>
</g>
<defs>
<filter id="filter0_f_1_1606" x="-5.0625" y="174.938" width="1909.12" height="1909.12" filterUnits="userSpaceOnUse" color-interpolation-filters="sRGB">
<feFlood flood-opacity="0" result="BackgroundImageFix"/>
<feBlend mode="normal" in="SourceGraphic" in2="BackgroundImageFix" result="shape"/>
<feGaussianBlur stdDeviation="312" result="effect1_foregroundBlur_1_1606"/>
</filter>
<clipPath id="clip0_1_1606">
<rect width="1941" height="1099" fill="white" transform="translate(-21)"/>
</clipPath>
<clipPath id="clip1_1_1606">
<rect width="14" height="14" fill="white" transform="translate(333 463.5)"/>
</clipPath>
<clipPath id="clip2_1_1606">
<rect width="21" height="21" fill="white" transform="translate(112.5 769.5)"/>
</clipPath>
<clipPath id="clip3_1_1606">
<rect width="56" height="56" fill="white" transform="translate(645 1075)"/>
</clipPath>
<clipPath id="clip4_1_1606">
<rect width="28" height="28" fill="white" transform="translate(590.938 221)"/>
</clipPath>
<clipPath id="clip5_1_1606">
<rect width="15.82" height="15.82" fill="white" transform="translate(101.089 130.089)"/>
</clipPath>
<clipPath id="clip6_1_1606">
<rect width="28" height="28" fill="white" transform="translate(1794 396)"/>
</clipPath>
<clipPath id="clip7_1_1606">
<rect width="14" height="14" fill="white" transform="translate(1279.84 205)"/>
</clipPath>
<clipPath id="clip8_1_1606">
<rect width="14" height="14" fill="white" transform="translate(1632 898)"/>
</clipPath>
</defs>
</svg>
