<svg width="25" height="25" viewBox="0 0 25 25" fill="none" xmlns="http://www.w3.org/2000/svg">
<path d="M8 6.1L5.5 7.5L6.9 5L5.5 2.5L8 3.9L10.5 2.5L9.1 5L10.5 7.5L8 6.1ZM20 15.9L22.5 14.5L21.1 17L22.5 19.5L20 18.1L17.5 19.5L18.9 17L17.5 14.5L20 15.9ZM22.5 2.5L21.1 5L22.5 7.5L20 6.1L17.5 7.5L18.9 5L17.5 2.5L20 3.9L22.5 2.5ZM13.84 13.28L16.28 10.84L14.16 8.72L11.72 11.16L13.84 13.28ZM14.87 7.79L17.21 10.13C17.6 10.5 17.6 11.15 17.21 11.54L5.54 23.21C5.15 23.6 4.5 23.6 4.13 23.21L1.79 20.87C1.4 20.5 1.4 19.85 1.79 19.46L13.46 7.79C13.85 7.4 14.5 7.4 14.87 7.79Z" fill="white"/>
</svg>
