<svg width="24" height="24" viewBox="0 0 24 24" fill="none" xmlns="http://www.w3.org/2000/svg">
<path fill-rule="evenodd" clip-rule="evenodd" d="M9.22675 3.40903L8.08176 6.50504C7.75976 7.37504 7.07376 8.06103 6.20276 8.38303L3.10776 9.52904L6.20276 10.674C7.07376 10.996 7.75976 11.682 8.08176 12.552L9.22675 15.648L10.3728 12.552C10.6948 11.682 11.3808 10.996 12.2508 10.674L15.3468 9.52904L12.2508 8.38303C11.3808 8.06103 10.6948 7.37504 10.3728 6.50504L9.22675 3.40903ZM10.5048 1.62804C10.0658 0.441043 8.38777 0.441043 7.94877 1.62804L6.37775 5.87403C6.23975 6.24703 5.94576 6.54104 5.57276 6.67904L1.32575 8.25104C0.139749 8.69004 0.139749 10.368 1.32575 10.807L5.57276 12.378C5.94576 12.516 6.23975 12.81 6.37775 13.183L7.94877 17.43C8.38777 18.616 10.0658 18.616 10.5048 17.43L12.0768 13.183C12.2148 12.81 12.5088 12.516 12.8808 12.378L17.1278 10.807C18.3138 10.368 18.3138 8.69004 17.1278 8.25104L12.8808 6.67904C12.5088 6.54104 12.2148 6.24703 12.0768 5.87403L10.5048 1.62804Z" fill="white"/>
<path fill-rule="evenodd" clip-rule="evenodd" d="M18.3097 15.726L17.8927 16.853C17.6627 17.475 17.1727 17.965 16.5517 18.195L15.4238 18.612L16.5517 19.029C17.1727 19.259 17.6627 19.749 17.8927 20.371L18.3097 21.499L18.7277 20.371C18.9577 19.749 19.4477 19.259 20.0687 19.029L21.1967 18.612L20.0687 18.195C19.4477 17.965 18.9577 17.475 18.7277 16.853L18.3097 15.726ZM19.1618 14.102C18.8698 13.311 17.7508 13.311 17.4588 14.102L16.6147 16.38C16.5227 16.629 16.3268 16.825 16.0788 16.917L13.7998 17.76C13.0088 18.053 13.0088 19.171 13.7998 19.464L16.0788 20.307C16.3268 20.399 16.5227 20.595 16.6147 20.844L17.4588 23.123C17.7508 23.913 18.8698 23.913 19.1618 23.123L20.0058 20.844C20.0978 20.595 20.2937 20.399 20.5417 20.307L22.8208 19.464C23.6118 19.171 23.6118 18.053 22.8208 17.76L20.5417 16.917C20.2937 16.825 20.0978 16.629 20.0058 16.38L19.1618 14.102Z" fill="white"/>
</svg>
