<svg width="1905" height="925" viewBox="0 0 1905 925" fill="none" xmlns="http://www.w3.org/2000/svg">
<g filter="url(#filter0_f_1_1619)">
<path d="M949.5 624.938C861.829 624.938 777.75 659.765 715.757 721.757C653.765 783.75 618.938 867.829 618.938 955.5C618.938 1043.17 653.765 1127.25 715.757 1189.24C777.75 1251.24 861.829 1286.06 949.5 1286.06C1037.17 1286.06 1121.25 1251.24 1183.24 1189.24C1245.24 1127.25 1280.06 1043.17 1280.06 955.5C1280.06 867.829 1245.24 783.75 1183.24 721.757C1121.25 659.765 1037.17 624.938 949.5 624.938ZM1133 974.527C1128.94 979.878 1123.3 983.825 1116.88 985.815L1064.95 1003.23C1049.09 1008.65 1034.65 1017.58 1022.71 1029.35C1010.85 1041.22 1001.9 1055.68 996.585 1071.6L978.848 1123.52C976.461 1129.38 972.567 1134.5 967.56 1138.36C962.206 1142.24 955.788 1144.38 949.177 1144.49C942.533 1144.58 936.052 1142.42 930.795 1138.36C925.432 1134.51 921.379 1129.1 919.185 1122.88L902.092 1070.95C896.78 1054.98 887.799 1040.48 875.87 1028.61C863.941 1016.73 849.395 1007.82 833.4 1002.58L781.8 985.493C775.573 983.298 770.17 979.246 766.32 973.882C762.3 968.602 760.145 962.137 760.193 955.5C760.236 948.779 762.378 942.239 766.32 936.795C770.024 931.567 779.876 946.382 786 944.5L833.4 969.5C849.45 964.065 840.805 975.766 853 964C864.932 951.938 871.036 989.125 876.292 973L893 978C894.933 971.898 908.995 951.49 914 947.5C919.144 943.157 960.183 985.847 966.915 985.815C973.314 985.705 973.795 942.026 979.17 945.5C984.845 949.028 986.739 977.712 989 984L995 969.5C1000.42 985.722 1011 925.54 1023 937.762C1035.12 949.463 1049.03 934.993 1064.95 940.5L1117.52 926.475C1123.69 928.441 1129.03 932.414 1132.68 937.762C1136.44 943.155 1138.47 949.569 1138.49 956.145C1138.45 962.66 1136.55 969.045 1133 974.527Z" fill="white"/>
</g>
<defs>
<filter id="filter0_f_1_1619" x="-5.0625" y="0.9375" width="1909.12" height="1909.12" filterUnits="userSpaceOnUse" color-interpolation-filters="sRGB">
<feFlood flood-opacity="0" result="BackgroundImageFix"/>
<feBlend mode="normal" in="SourceGraphic" in2="BackgroundImageFix" result="shape"/>
<feGaussianBlur stdDeviation="312" result="effect1_foregroundBlur_1_1619"/>
</filter>
</defs>
</svg>
