<svg width="1721" height="969" viewBox="0 0 1721 969" fill="none" xmlns="http://www.w3.org/2000/svg">
<g clip-path="url(#clip0_2092_209)">
<path fill-rule="evenodd" clip-rule="evenodd" d="M239.935 334.155C239.617 333.282 238.383 333.282 238.065 334.155L236.622 338.122L232.655 339.565C231.782 339.883 231.782 341.117 232.655 341.435L236.622 342.878L238.065 346.845C238.383 347.718 239.617 347.718 239.935 346.845L241.378 342.878L245.345 341.435C246.218 341.117 246.218 339.883 245.345 339.565L241.378 338.122L239.935 334.155Z" fill="#CCCCCC"/>
</g>
<g clip-path="url(#clip1_2092_209)">
<path fill-rule="evenodd" clip-rule="evenodd" d="M23.4024 640.482C22.9254 639.173 21.0744 639.173 20.5974 640.482L18.4329 646.433L12.4824 648.597C11.1729 649.074 11.1729 650.925 12.4824 651.402L18.4329 653.567L20.5974 659.517C21.0744 660.827 22.9254 660.827 23.4024 659.517L25.5669 653.567L31.5174 651.402C32.8269 650.925 32.8269 649.074 31.5174 648.597L25.5669 646.433L23.4024 640.482Z" fill="#CCCCCC"/>
</g>
<g clip-path="url(#clip2_2092_209)">
<path fill-rule="evenodd" clip-rule="evenodd" d="M575.739 947.619C574.467 944.127 569.531 944.127 568.259 947.619L562.487 963.487L546.619 969.259C543.127 970.531 543.127 975.467 546.619 976.739L562.487 982.511L568.259 998.379C569.531 1001.87 574.467 1001.87 575.739 998.379L581.511 982.511L597.379 976.739C600.871 975.467 600.871 970.531 597.379 969.259L581.511 963.487L575.739 947.619Z" fill="#CCCCCC"/>
</g>
<g clip-path="url(#clip3_2092_209)">
<path fill-rule="evenodd" clip-rule="evenodd" d="M505.807 92.31C505.171 90.564 502.703 90.564 502.067 92.31L499.181 100.244L491.247 103.13C489.501 103.766 489.501 106.234 491.247 106.87L499.181 109.756L502.067 117.69C502.703 119.436 505.171 119.436 505.807 117.69L508.693 109.756L516.627 106.87C518.373 106.234 518.373 103.766 516.627 103.13L508.693 100.244L505.807 92.31Z" fill="#CCCCCC"/>
</g>
<g clip-path="url(#clip4_2092_209)">
<path fill-rule="evenodd" clip-rule="evenodd" d="M9.05557 0.829712C8.69623 -0.156779 7.30181 -0.156779 6.94246 0.829712L5.31187 5.31242L0.829162 6.94301C-0.157328 7.30235 -0.157328 8.69677 0.829162 9.05612L5.31187 10.6867L6.94246 15.1694C7.30181 16.1559 8.69623 16.1559 9.05557 15.1694L10.6862 10.6867L15.1689 9.05612C16.1554 8.69677 16.1554 7.30235 15.1689 6.94301L10.6862 5.31242L9.05557 0.829712Z" fill="#CCCCCC"/>
</g>
<g clip-path="url(#clip5_2092_209)">
<path fill-rule="evenodd" clip-rule="evenodd" d="M1708.87 267.31C1708.23 265.564 1705.77 265.564 1705.13 267.31L1702.24 275.244L1694.31 278.13C1692.56 278.766 1692.56 281.234 1694.31 281.87L1702.24 284.756L1705.13 292.69C1705.77 294.436 1708.23 294.436 1708.87 292.69L1711.76 284.756L1719.69 281.87C1721.44 281.234 1721.44 278.766 1719.69 278.13L1711.76 275.244L1708.87 267.31Z" fill="#CCCCCC"/>
</g>
<g clip-path="url(#clip6_2092_209)">
<path fill-rule="evenodd" clip-rule="evenodd" d="M1186.78 75.6552C1186.46 74.7822 1185.22 74.7822 1184.91 75.6552L1183.46 79.6222L1179.5 81.0652C1178.62 81.3832 1178.62 82.6172 1179.5 82.9352L1183.46 84.3782L1184.91 88.3452C1185.22 89.2182 1186.46 89.2182 1186.78 88.3452L1188.22 84.3782L1192.19 82.9352C1193.06 82.6172 1193.06 81.3832 1192.19 81.0652L1188.22 79.6222L1186.78 75.6552Z" fill="#CCCCCC"/>
</g>
<g clip-path="url(#clip7_2092_209)">
<path fill-rule="evenodd" clip-rule="evenodd" d="M1538.93 768.655C1538.62 767.782 1537.38 767.782 1537.06 768.655L1535.62 772.622L1531.65 774.065C1530.78 774.383 1530.78 775.617 1531.65 775.935L1535.62 777.378L1537.06 781.345C1537.38 782.218 1538.62 782.218 1538.93 781.345L1540.38 777.378L1544.34 775.935C1545.22 775.617 1545.22 774.383 1544.34 774.065L1540.38 772.622L1538.93 768.655Z" fill="#CCCCCC"/>
</g>
<defs>
<clipPath id="clip0_2092_209">
<rect width="14" height="14" fill="white" transform="translate(232 333.5)"/>
</clipPath>
<clipPath id="clip1_2092_209">
<rect width="21" height="21" fill="white" transform="translate(11.5 639.5)"/>
</clipPath>
<clipPath id="clip2_2092_209">
<rect width="56" height="56" fill="white" transform="translate(544 945)"/>
</clipPath>
<clipPath id="clip3_2092_209">
<rect width="28" height="28" fill="white" transform="translate(489.938 91)"/>
</clipPath>
<clipPath id="clip4_2092_209">
<rect width="15.82" height="15.82" fill="white" transform="translate(0.0890503 0.0893555)"/>
</clipPath>
<clipPath id="clip5_2092_209">
<rect width="28" height="28" fill="white" transform="translate(1693 266)"/>
</clipPath>
<clipPath id="clip6_2092_209">
<rect width="14" height="14" fill="white" transform="translate(1178.84 75)"/>
</clipPath>
<clipPath id="clip7_2092_209">
<rect width="14" height="14" fill="white" transform="translate(1531 768)"/>
</clipPath>
</defs>
</svg>
