<svg width="663" height="301" viewBox="0 0 663 301" fill="none" xmlns="http://www.w3.org/2000/svg">
<path d="M331.5 0.9375C243.829 0.9375 159.75 35.7645 97.757 97.757C35.7645 159.75 0.9375 243.829 0.9375 331.5C0.9375 419.171 35.7645 503.25 97.757 565.243C159.75 627.235 243.829 662.062 331.5 662.062C419.171 662.062 503.25 627.235 565.243 565.243C627.235 503.25 662.062 419.171 662.062 331.5C662.062 243.829 627.235 159.75 565.243 97.757C503.25 35.7645 419.171 0.9375 331.5 0.9375ZM515.003 350.527C510.935 355.878 505.297 359.825 498.878 361.815L446.955 379.23C431.089 384.653 416.648 393.581 404.708 405.353C392.846 417.222 383.904 431.685 378.585 447.6L360.848 499.522C358.461 505.378 354.567 510.496 349.56 514.357C344.206 518.236 337.788 520.375 331.177 520.485C324.533 520.583 318.052 518.422 312.795 514.357C307.432 510.507 303.379 505.104 301.185 498.878L284.092 446.955C278.78 430.984 269.799 416.481 257.87 404.608C245.941 392.735 231.395 383.822 215.4 378.585L163.8 361.493C157.573 359.298 152.17 355.246 148.32 349.882C144.3 344.602 142.145 338.137 142.193 331.5C142.236 324.779 144.378 318.239 148.32 312.795C152.024 307.567 157.353 303.712 163.477 301.83L215.4 284.415C231.45 278.98 246.098 270.059 258.292 258.292C270.225 246.231 279.158 231.525 284.415 215.4L301.83 164.445C303.763 158.343 307.467 152.955 312.473 148.965C317.616 144.622 324.123 142.224 330.855 142.193C337.254 142.083 343.54 143.879 348.915 147.352C354.59 150.881 358.909 156.222 361.17 162.51L378.585 215.078C384.003 231.299 393.033 246.07 405.03 258.292C417.15 269.993 431.678 278.908 447.6 284.415L499.522 302.475C505.693 304.441 511.028 308.414 514.68 313.762C518.444 319.155 520.469 325.569 520.485 332.145C520.453 338.66 518.55 345.045 515.003 350.527Z" fill="white"/>
</svg>
